<?xml version="1.0" encoding="UTF-8"?>
<svg width="100pt" height="100pt" version="1.1" viewBox="0 0 100 100" xmlns="http://www.w3.org/2000/svg">
 <path d="m51.496 48.973 6.6875-3.3516v8.1328l-14.555 0.003906v-8.1328l6.6797 3.3477c0.35938 0.17969 0.79688 0.19531 1.1875 0zm-11.387-8.0586 2.7773 1.3906c0.078125 0.03125 0.15234 0.066406 0.22266 0.10937l7.7969 3.9062 7.7969-3.9062c0.070313-0.042968 0.14453-0.082031 0.22266-0.10937l2.7773-1.3906-10.793-5.4062zm45.602-12.238h-71.422c0.074219-1.1719 0.58594-2.2344 1.3711-3.0195 0.85156-0.85156 2.0234-1.3789 3.3125-1.3789h62.051c1.2891 0 2.4609 0.52734 3.3125 1.3789 0.78906 0.78516 1.3008 1.8477 1.375 3.0195zm-34.152-2.1992c0-0.73047-0.59375-1.3242-1.3242-1.3242h-0.47266c-0.73047 0-1.3242 0.59375-1.3242 1.3242 0 0.73047 0.59375 1.3242 1.3242 1.3242h0.47266c0.73047 0 1.3242-0.59375 1.3242-1.3242zm-14.391 26.258c-0.13281 0-0.25391 0.054687-0.34375 0.14453-0.089844 0.089844-0.14453 0.21094-0.14453 0.34375v2.5352h0.97266v-2.5352c0-0.13281-0.054688-0.25391-0.14453-0.34375-0.085937-0.089844-0.20703-0.14453-0.33984-0.14453zm1.082 17.91c0.125 0.125 0.29297 0.20312 0.48047 0.20312h22.539c0.1875 0 0.35547-0.078125 0.48047-0.20312 0.125-0.12109 0.19922-0.29297 0.19922-0.48047v-0.67969h-23.898v0.67969c0 0.1875 0.078125 0.35547 0.19922 0.48047zm56.75-1.1602v3.1211c0 0.85547-0.35156 1.6367-0.91797 2.1992-0.56641 0.56641-1.3477 0.91797-2.2031 0.91797h-83.758c-0.85547 0-1.6367-0.35156-2.2031-0.91797-0.56641-0.56641-0.91797-1.3438-0.91797-2.1992v-3.1211h30.402v0.67969c0 0.91797 0.375 1.75 0.97656 2.3516 0.60156 0.60156 1.4336 0.97656 2.3516 0.97656h22.539c0.91797 0 1.75-0.375 2.3516-0.97656 0.60156-0.60156 0.97656-1.4336 0.97656-2.3516v-0.67969zm-79.633 3.1211c0-0.73047-0.59375-1.3242-1.3242-1.3242h-3.7617c-0.73047 0-1.3242 0.59375-1.3242 1.3242s0.59375 1.3242 1.3242 1.3242h3.7617c0.73047-0.003907 1.3242-0.59375 1.3242-1.3242zm7.1523 0c0-0.73047-0.59375-1.3242-1.3242-1.3242h-3.7617c-0.73047 0-1.3242 0.59375-1.3242 1.3242s0.59375 1.3242 1.3242 1.3242h3.7617c0.73047-0.003907 1.3242-0.59375 1.3242-1.3242zm7.1523 0c0-0.73047-0.59375-1.3242-1.3242-1.3242h-3.7617c-0.73047 0-1.3242 0.59375-1.3242 1.3242s0.59375 1.3242 1.3242 1.3242h3.7617c0.73047-0.003907 1.3242-0.59375 1.3242-1.3242zm7.0547-5.7695h-22.445v-4.3984h71.438v4.3984zm10.727-2.1992c0 0.73047 0.59375 1.3242 1.3242 1.3242h2.4453c0.73047 0 1.3242-0.59375 1.3242-1.3242s-0.59375-1.3242-1.3242-1.3242h-2.4453c-0.73047 0-1.3242 0.58984-1.3242 1.3242zm38.266-4.8477h-71.438v-28.465h71.438zm-20.488-20.055-13.73-6.8789c-0.35938-0.17969-0.79688-0.19531-1.1836-0.003907l-13.629 6.8281c-0.49609 0.19141-0.84375 0.67187-0.84375 1.2344v9.4648c-0.33203 0.15625-0.63281 0.37109-0.89062 0.625-0.56641 0.56641-0.91797 1.3516-0.91797 2.2148v3.8594c0 0.73047 0.59375 1.3242 1.3242 1.3242h3.6211c0.73047 0 1.3242-0.59375 1.3242-1.3242v-3.8594c0-0.86328-0.35156-1.6484-0.91797-2.2148-0.25781-0.25781-0.55859-0.46875-0.89062-0.625v-7.3281l2.4922 1.25v10.781c0 0.73047 0.59375 1.3203 1.3242 1.3203h17.199c0.73047 0 1.3242-0.59375 1.3242-1.3203l-0.007813-10.781 4.4023-2.207c0.24609-0.12109 0.45703-0.32422 0.58984-0.58984 0.32813-0.65234 0.0625-1.4414-0.58984-1.7695z" fill="#fff"/>
</svg>
