<svg width="52" height="46" viewBox="0 0 52 46" fill="none" xmlns="http://www.w3.org/2000/svg">
<path d="M25.9999 23.1879C28.2147 23.1879 30.2225 24.0724 31.6746 25.4999C32.3785 26.1922 32.9519 27.0116 33.3564 27.9217H42.9285C43.1194 27.27 43.4773 26.6856 43.9533 26.2163L43.9591 26.2106C44.4355 25.7436 45.0289 25.3916 45.6913 25.2047V8.92077C45.0286 8.73305 44.4344 8.38108 43.9571 7.91294L43.9513 7.90727C43.4764 7.43873 43.1185 6.85517 42.9284 6.20379H9.07098C8.88009 6.85551 8.52217 7.43988 8.04614 7.9092L8.04037 7.91488C7.56392 8.38191 6.97051 8.73388 6.30814 8.92087V25.2048C6.97086 25.3925 7.56509 25.7445 8.04234 26.2126L8.04811 26.2183C8.52302 26.6868 8.88093 27.2704 9.07107 27.9217H18.6432C19.048 27.0119 19.6215 26.1921 20.3249 25.4999C21.777 24.072 23.7844 23.1879 25.9997 23.1879H25.9999ZM17.5943 14.6111C16.9851 14.6111 16.4905 14.1248 16.4905 13.5257C16.4905 12.9266 16.9851 12.4403 17.5943 12.4403H34.4062C35.0155 12.4403 35.51 12.9266 35.51 13.5257C35.51 14.1248 35.0155 14.6111 34.4062 14.6111H17.5943ZM13.4113 10.9801C12.8021 10.9801 12.3076 10.4937 12.3076 9.89464C12.3076 9.29554 12.8021 8.80921 13.4113 8.80921H38.5888C39.1981 8.80921 39.6926 9.29554 39.6926 9.89464C39.6926 10.4937 39.198 10.9801 38.5888 10.9801H13.4113ZM18.2262 33.0501C18.227 33.1084 18.2443 33.1659 18.2739 33.2219L18.2262 33.0501ZM18.5945 34.1254H1.10375C0.494525 34.1254 0 33.639 0 33.0399V1.08543C0 0.486317 0.494535 0 1.10375 0H50.8962C51.5055 0 52 0.486327 52 1.08543V33.0399C52 33.639 51.5055 34.1254 50.8962 34.1254H33.4055C33.3631 34.2234 33.32 34.3206 33.2746 34.4168L37.4596 41.5467C37.7613 42.0637 37.58 42.7253 37.0543 43.022C36.8146 43.1571 36.544 43.1939 36.2919 43.1443L33.4814 42.597L32.5639 45.264C32.3691 45.8306 31.7434 46.1341 31.1672 45.9426C30.8778 45.8465 30.6557 45.6433 30.531 45.3927L26.7418 38.9376C26.4974 38.9595 26.2503 38.9716 26.0001 38.9716C25.75 38.9716 25.5029 38.9603 25.2585 38.9383L21.4327 45.4552C21.131 45.9722 20.4586 46.1504 19.9325 45.8537C19.6908 45.7171 19.5218 45.5036 19.4391 45.2637L18.5181 42.5971L15.7083 43.1489C15.1114 43.2654 14.5294 42.8843 14.4109 42.2973C14.3505 41.9968 14.4225 41.6993 14.5876 41.4662L18.7255 34.4168C18.6797 34.3207 18.6362 34.2238 18.5947 34.1254L18.5945 34.1254ZM33.9769 31.9541H49.7928V2.17086H2.20819V31.9541H18.0241C17.9914 31.6665 17.9752 31.3754 17.9752 31.0795C17.9752 30.7457 17.9968 30.416 18.0379 30.0924H8.12456C7.51533 30.0924 7.0208 29.606 7.0208 29.0069C7.0208 28.5134 6.8176 28.0668 6.49163 27.7462C6.1618 27.4219 5.70768 27.2221 5.20581 27.2221C4.59658 27.2221 4.10205 26.7357 4.10205 26.1366V7.98765C4.10205 7.38854 4.59659 6.90222 5.20581 6.90222C5.70766 6.90222 6.16178 6.70239 6.48779 6.38183C6.81761 6.05748 7.02081 5.61089 7.02081 5.11735C7.02081 4.51824 7.51535 4.03192 8.12457 4.03192H43.8775C44.4868 4.03192 44.9813 4.51824 44.9813 5.11735C44.9813 5.61088 45.1845 6.05746 45.5105 6.37805C45.8403 6.7024 46.2944 6.90223 46.7963 6.90223C47.4055 6.90223 47.9001 7.38856 47.9001 7.98766V26.1366C47.9001 26.7358 47.4055 27.2221 46.7963 27.2221C46.2944 27.2221 45.8403 27.4219 45.5143 27.7425C45.1845 28.0668 44.9813 28.5134 44.9813 29.0069C44.9813 29.6061 44.4867 30.0924 43.8775 30.0924H33.9642C34.0053 30.416 34.0269 30.7452 34.0269 31.0795C34.0269 31.3754 34.0107 31.6665 33.978 31.9541H33.9769ZM31.911 36.4169C31.834 36.4991 31.7547 36.5808 31.6743 36.6599L31.6116 36.7171C30.8596 37.4411 29.9629 38.0216 28.97 38.4122L31.256 42.3059L31.6855 41.0563C31.8387 40.5147 32.3944 40.1725 32.964 40.2842L34.3391 40.554L31.911 36.4174L31.911 36.4169ZM23.0289 38.413C22.0079 38.0126 21.0896 37.4112 20.3254 36.6595C20.2453 36.5808 20.1657 36.4987 20.0887 36.4166L17.6606 40.5532L19.0349 40.2833C19.5698 40.1796 20.1148 40.4782 20.2937 40.9998L20.7432 42.3058L23.0285 38.4129L23.0289 38.413ZM30.1145 27.0336C29.0627 25.9992 27.6068 25.3585 26 25.3585C24.3929 25.3585 22.9373 25.9992 21.8855 27.0336C20.8337 28.0679 20.1821 29.4989 20.1821 31.079C20.1821 32.6594 20.8337 34.0909 21.8855 35.1252C22.9373 36.1596 24.3932 36.8003 26 36.8003C27.5837 36.8003 29.0184 36.18 30.0671 35.1752L30.1148 35.1253C31.1667 34.0909 31.8182 32.6592 31.8182 31.0791C31.8182 29.4986 31.1666 28.0676 30.1148 27.0336L30.1145 27.0336Z" fill="white"/>
</svg>
