<?xml version="1.0" encoding="UTF-8"?>
<svg width="100pt" height="100pt" version="1.1" viewBox="0 0 100 100" xmlns="http://www.w3.org/2000/svg">
 <g fill="#fff">
  <path d="m64.199 75.199c0 2 1.6016 3.6016 3.6016 3.6016s3.6016-1.6016 3.6016-3.6016c0-1.6016-1-2.8984-2.3984-3.3984-0.39844-0.19922-0.80078-0.19922-1.3008-0.19922-0.39844 0-0.80078 0.10156-1.1016 0.19922-1.4023 0.39844-2.4023 1.8008-2.4023 3.3984zm3.6016-2.0977c1.1992 0 2.1016 1 2.1016 2.1016 0 1.1992-1 2.1016-2.1016 2.1016-1.1992 0-2.1016-1-2.1016-2.1016 0-1.2031 0.90234-2.1016 2.1016-2.1016z"/>
  <path d="m17.398 95h65.102c3.3984 0 6.1992-2.8008 6.1992-6.1992v-16.801c0-5.3984-3.3008-10.199-8.3984-12.102l-13.199-4.8984c1.1992 4.1992 1.8008 9.1016 2 14.602 2.6016 0.60156 4.5 2.8984 4.5 5.6016 0 3.1992-2.6016 5.8008-5.8008 5.8008s-5.8008-2.6016-5.8008-5.8008c0-2.8008 2-5.1016 4.6016-5.6992-0.10156-6-0.89844-11.199-2.3984-15.699l-4-1.5c-0.60156-0.19922-1.1992 0.10156-1.3984 0.60156l-8.8047 25.793c-0.10156 0.39844-0.60156 0.30078-0.69922 0l-8.1016-25.602c-0.19922-0.60156-0.80078-0.89844-1.3984-0.69922l-5.8008 2.1016c-1.1992 3.1016-1.8008 6-1.8008 8.6016 0.19922 0 0.39844 0.10156 0.5 0.39844l0.39844 3.1992c0 0.30078 0.30078 0.60156 0.69922 0.60156 4.6016 0.39844 8.5 4 9.1016 8.8008l0.30078 2.3008c0 0.30078-0.19922 0.5-0.39844 0.60156l-0.60156-0.003906 0.89844 7.1016c0.19922 1.6016-0.89844 3-2.5 3.1992v0.10156c0 0.30078-0.19922 0.69922-0.60156 0.69922l-1 0.10156c-0.80078 0.10156-1.5-0.39844-1.6016-1.1992-0.10156-0.80078 0.39844-1.5 1.1992-1.6016l1-0.10156c0.39844 0 0.69922 0.19922 0.69922 0.60156v0.10156c0.89844-0.10156 1.5-0.89844 1.3984-1.8008l-0.89844-7.1016-0.39844 0.10156c-0.30078 0-0.5-0.19922-0.60156-0.39844l-0.30078-2.3008c-0.5-3.8008-4-6.5-7.8984-6-3.8008 0.5-6.3984 4.1016-5.8984 7.8984l0.30078 2.1992c0 0.30078-0.19922 0.5-0.39844 0.60156l-0.39844 0.10156 0.89844 7.1016c0.10156 0.89844 0.89844 1.5 1.8008 1.3984v-0.10156c0-0.30078 0.19922-0.69922 0.60156-0.69922l1-0.10156c0.80078-0.10156 1.5 0.39844 1.6016 1.1992 0.10156 0.80078-0.39844 1.5-1.1992 1.6016l-1 0.10156c-0.30078 0-0.69922-0.19922-0.69922-0.60156v-0.10156c-1.6016 0.19922-3-0.89844-3.1992-2.5l-0.89844-7.1016-0.39844 0.10156c-0.30078 0-0.5-0.19922-0.60156-0.39844l-0.30078-2.1992c-0.60156-4.8008 2.1992-9.3008 6.6016-10.898 0.30078-0.10156 0.5-0.39844 0.5-0.80078l-0.39844-3.1992c0-0.19922 0.10156-0.39844 0.19922-0.39844-0.10156-2.3984 0.30078-5 1.1992-7.8008l-11.301 4.1992c-5 1.8984-8.3984 6.6992-8.3984 12.102v16.898c0.09375 3.0938 2.793 5.8945 6.1914 5.8945z"/>
  <path d="m35 34.5c1.1992 7.8008 7.6992 13.199 14.398 14.301 0.19922 0 0.39844 0.10156 0.60156 0.10156 0.69922 0 1.3008 0 1.8984-0.19922 8.1992-2.3984 12.102-8.5 13.199-14.102 2.1992 0.19922 3.8008-1.1992 4.6016-4.3984 0.89844-4.3008 1-7.3984-2.6992-7.1016 1.8984-14.801-7.1016-6.8984-5.3984-13.301 1.6992-6.3008-31.898-9.8984-28.301 13.398-3-0.60156-4.3984 1.1016-3.3008 6 0.80078 4.1016 2.5 5.8008 5 5.3008z"/>
 </g>
</svg>
