<?xml version="1.0" encoding="UTF-8"?>
<svg width="100pt" height="100pt" version="1.1" viewBox="0 0 100 100" xmlns="http://www.w3.org/2000/svg">
 <g>
  <path d="m100 50c0 27.613-22.387 50-50 50s-50-22.387-50-50 22.387-50 50-50 50 22.387 50 50" fill="#e6e5e2"/>
  <path d="m50 31.867c6.168 0 11.855 2.1953 16.477 5.0508 7.1875 4.4453 11.863 10.805 11.863 13.082s-4.6797 8.6367-11.863 13.082c-4.6211 2.8594-10.309 5.0508-16.477 5.0508l-0.30078-0.007812c-7.6914-0.085938-14.617-3.5-19.617-7.3398-5.1992-3.9883-8.4141-8.6914-8.4141-10.777l-0.007813-0.007812c0-0.10547 0.011719-0.20703 0.03125-0.30469 0.35547-2.6016 4.8789-8.5352 11.695-12.754 4.6445-2.8711 10.383-5.0742 16.613-5.0742zm0 8.3398c2.6953 0 5.1445 1.0977 6.918 2.8711l0.007812 0.007813c1.7734 1.7773 2.8711 4.2266 2.8711 6.918 0 2.6953-1.0977 5.1445-2.8711 6.918l-0.007812 0.007813c-1.7773 1.7734-4.2266 2.8711-6.918 2.8711-2.6953 0-5.1445-1.0977-6.918-2.8711l-0.007812-0.007813c-1.7734-1.7773-2.8711-4.2266-2.8711-6.918 0-2.6953 1.0977-5.1445 2.8711-6.918l0.007812-0.007813c1.7773-1.7734 4.2266-2.8711 6.918-2.8711zm4.6992 5.0898c-1.1992-1.1992-2.8594-1.9414-4.6992-1.9414s-3.5 0.74219-4.6992 1.9414l-0.007812 0.007813c-1.1992 1.1992-1.9414 2.8594-1.9414 4.6992s0.74219 3.5 1.9414 4.6992l0.007812 0.007813c1.1992 1.1992 2.8594 1.9414 4.6992 1.9414s3.5-0.74219 4.6992-1.9414l0.007812-0.007813c1.1992-1.1992 1.9414-2.8594 1.9414-4.6992s-0.74219-3.5-1.9414-4.6992zm8.0586-6.8945c0.42188 0.80859 0.80078 1.6562 1.1328 2.543 1.0234 2.7344 1.6016 5.8125 1.6016 9.0547s-0.57813 6.3203-1.6016 9.0547c-0.33203 0.88672-0.71094 1.7344-1.1328 2.543 0.71094-0.375 1.4023-0.77344 2.0703-1.1875 6.2773-3.8828 10.363-8.8281 10.363-10.414 0-1.5859-4.0859-6.5312-10.363-10.414-0.66797-0.41016-1.3594-0.80859-2.0703-1.1875zm-5.4062 25.445c1.4961-1.5586 2.7305-3.5703 3.5977-5.8867 0.89062-2.375 1.3906-5.082 1.3906-7.9609s-0.50391-5.582-1.3906-7.9609c-0.86719-2.3164-2.1055-4.3281-3.5977-5.8867-2.332-0.71094-4.8008-1.1367-7.3516-1.1367-2.543 0-5.0039 0.41406-7.3242 1.1094-1.5039 1.5625-2.75 3.582-3.6211 5.9062-0.89063 2.3789-1.3945 5.0859-1.3945 7.9648 0 2.8828 0.50391 5.5938 1.3945 7.9688 0.875 2.3281 2.1211 4.3516 3.6289 5.9102 2.2422 0.67188 4.6133 1.082 7.0586 1.1094l0.26172-0.003906c2.5547 0 5.0234-0.42578 7.3516-1.1367zm-20.07-2.1758c-0.4375-0.82812-0.82812-1.6953-1.168-2.6055-1.0234-2.7383-1.6055-5.8164-1.6055-9.0664 0-3.2461 0.57813-6.3281 1.6055-9.0625 0.33984-0.91016 0.73047-1.7812 1.168-2.6055-0.77344 0.40234-1.5234 0.83203-2.2461 1.2773-6.0898 3.7695-10.082 8.5312-10.227 10.305l0.003906 0.09375c-0.007812 1.3359 2.7383 4.875 7.1758 8.2812 1.5742 1.2109 3.3555 2.3711 5.293 3.3789z" fill="#122129"/>
 </g>
</svg>
