<?xml version="1.0" encoding="UTF-8"?>
<svg width="100pt" height="100pt" version="1.1" viewBox="0 0 100 100" xmlns="http://www.w3.org/2000/svg">
 <g>
  <path d="m100 50c0 27.613-22.387 50-50 50s-50-22.387-50-50 22.387-50 50-50 50 22.387 50 50" fill="#e6e5e2"/>
  <path d="m54.566 50.785-3.1484 3.1484c1.4141-0.46875 2.5195-1.5703 3.1484-3.1484zm-10.234-1.7305c0 0.31641 0 0.78906 0.15625 1.1016l6.1406-6.1406c-0.31641 0-0.62891-0.15625-1.1016-0.15625-2.832 0-5.1953 2.3633-5.1953 5.1953zm-5.0391 6.2969c-4.4102-2.6758-7.5586-6.1406-7.5586-6.1406s3.1484-2.6758 7.5586-4.8789c-0.62891 1.418-1.1016 3.1484-1.1016 4.7227 0 2.0469 0.62891 4.0938 1.5742 5.8242l2.2031-2.2031c-0.47266-1.1016-0.78906-2.3633-0.78906-3.6211 0-2.832 1.418-5.1953 3.4648-6.7695 1.5742-0.47266 3.1484-0.62891 4.8789-0.62891 1.1016 0 2.2031 0.15625 3.3047 0.31641l3.9375-3.9375c-2.3633-0.78906-4.8789-1.418-7.3984-1.418-12.594 0-22.043 12.594-22.043 12.594s3.7773 4.8789 9.6055 8.6602zm20.625-11.02c0.15625 0.31641 0.15625 0.47266 0.31641 0.78906l0.47266-0.47266c-0.16016-0.16016-0.47266-0.31641-0.78906-0.31641zm3.9375-2.6758-2.9922 2.9922c4.4102 2.0469 7.5586 4.5664 7.5586 4.5664s-3.9375 3.6211-9.2891 6.2969c1.2578-1.8906 2.0469-4.0938 2.0469-6.4531 0-1.418-0.31641-2.6758-0.78906-3.9375l-2.5195 2.3594c0.15625 0.47266 0.15625 1.1016 0.15625 1.5742 0 4.7227-3.7773 8.5-8.5 8.5-0.62891 0-1.1016 0-1.7305-0.15625l-3.7773 3.7773c1.5742 0.47266 3.3047 0.62891 5.0391 0.62891 12.594 0 23.617-12.594 23.617-12.594-0.003906 0-3.4688-4.0898-8.8203-7.5547zm0-7.7148-29.914 29.914 2.2031 2.2031 29.914-29.914z" fill="#122129" fill-rule="evenodd"/>
 </g>
</svg>
