<svg width="26" height="23" viewBox="0 0 26 23" fill="none" xmlns="http://www.w3.org/2000/svg">
<path d="M5.375 3.28571C5.375 1.74441 6.6137 0.5 8.125 0.5H22.75C24.2613 0.5 25.5 1.74441 25.5 3.28571V19.7143C25.5 21.2556 24.2613 22.5 22.75 22.5H4.0625C2.09925 22.5 0.5 20.8911 0.5 18.8929V4.92857C0.5 4.29084 1.00745 3.78571 1.625 3.78571C2.24255 3.78571 2.75 4.29084 2.75 4.92857V18.8929C2.75 19.6156 3.33434 20.2143 4.0625 20.2143C4.79066 20.2143 5.375 19.6156 5.375 18.8929V3.28571ZM7.625 4.51786V8.625C7.625 9.57879 8.38708 10.3571 9.34375 10.3571H15.0312C15.9879 10.3571 16.75 9.57879 16.75 8.625V4.51786C16.75 3.56407 15.9879 2.78571 15.0312 2.78571H9.34375C8.38708 2.78571 7.625 3.56407 7.625 4.51786ZM18.1875 4.10714C18.1875 4.82991 18.7718 5.42857 19.5 5.42857H21.9375C22.6657 5.42857 23.25 4.82991 23.25 4.10714C23.25 3.38438 22.6657 2.78571 21.9375 2.78571H19.5C18.7718 2.78571 18.1875 3.38438 18.1875 4.10714ZM18.1875 9.03571C18.1875 9.75848 18.7718 10.3571 19.5 10.3571H21.9375C22.6657 10.3571 23.25 9.75848 23.25 9.03571C23.25 8.31295 22.6657 7.71429 21.9375 7.71429H19.5C18.7718 7.71429 18.1875 8.31295 18.1875 9.03571ZM7.625 13.9643C7.625 14.687 8.20934 15.2857 8.9375 15.2857H21.9375C22.6657 15.2857 23.25 14.687 23.25 13.9643C23.25 13.2415 22.6657 12.6429 21.9375 12.6429H8.9375C8.20934 12.6429 7.625 13.2415 7.625 13.9643ZM7.625 18.8929C7.625 19.6156 8.20934 20.2143 8.9375 20.2143H21.9375C22.6657 20.2143 23.25 19.6156 23.25 18.8929C23.25 18.1701 22.6657 17.5714 21.9375 17.5714H8.9375C8.20934 17.5714 7.625 18.1701 7.625 18.8929Z" stroke="#0F366D"/>
</svg>
