<svg width="15" height="29" viewBox="0 0 15 29" fill="none" xmlns="http://www.w3.org/2000/svg">
<path d="M0 2C0 0.89543 0.895431 0 2 0H13C14.1046 0 15 0.895431 15 2V14H0V2Z" fill="#0F366D"/>
<path d="M0 15H15V27C15 28.1046 14.1046 29 13 29H2C0.89543 29 0 28.1046 0 27V15Z" fill="#0F366D"/>
<circle cx="2.5" cy="2.5" r="1.5" fill="white"/>
<circle cx="2.5" cy="17.5" r="1.5" fill="white"/>
<circle cx="2.5" cy="26.5" r="1.5" fill="white"/>
<circle cx="12.5" cy="26.5" r="1.5" fill="white"/>
<circle cx="7.5" cy="21.5" r="1.5" fill="white"/>
<path d="M11.8478 10.332V12H11.0018V7.812H12.5438C13.0278 7.812 13.3998 7.934 13.6598 8.178C13.9238 8.418 14.0558 8.716 14.0558 9.072C14.0558 9.336 13.9758 9.582 13.8158 9.81C13.6558 10.038 13.4038 10.194 13.0598 10.278L14.1278 12H13.1258L12.1238 10.332H11.8478ZM11.8478 8.46V9.684H12.5438C12.7558 9.684 12.9178 9.63 13.0298 9.522C13.1418 9.41 13.1978 9.26 13.1978 9.072C13.1978 8.884 13.1418 8.736 13.0298 8.628C12.9178 8.516 12.7558 8.46 12.5438 8.46H11.8478ZM14.2871 17.812L12.9791 19.906L14.2871 22H13.3331L12.4691 20.62L11.6651 22H10.7111L12.0251 19.906L10.7111 17.812H11.6651L12.5291 19.192L13.3391 17.812H14.2871Z" fill="white"/>
</svg>
