<svg width="15" height="14" viewBox="0 0 15 14" fill="none" xmlns="http://www.w3.org/2000/svg">
<path d="M9.40114 0.607924L10.1309 2.14896C10.3089 2.52498 10.6616 2.78132 11.0742 2.83466L12.7617 3.04734L12.4478 4.72407C12.3714 5.1322 12.5059 5.54621 12.8076 5.83151L14.0471 6.9963L12.8076 8.16856C12.5059 8.45385 12.3714 8.86782 12.4478 9.27598L12.766 10.9468L11.0741 11.1654C10.6615 11.2187 10.3089 11.4751 10.1308 11.8511L9.40812 13.3898L7.91149 12.5717C7.73314 12.4742 7.5314 12.4226 7.3281 12.4226C7.12483 12.4226 6.92311 12.4741 6.74472 12.5716L5.25507 13.3921L4.52531 11.851C4.34724 11.475 3.9946 11.2187 3.58201 11.1653L1.89453 10.9527L2.20838 9.27593C2.28478 8.86779 2.15028 8.45378 1.84859 8.16848L0.609072 7.0037L1.84865 5.83141C2.15031 5.54609 2.28481 5.13211 2.20842 4.72402L1.89024 3.05324L3.58207 2.83458C3.99468 2.78126 4.34733 2.52494 4.5254 2.14891L5.25283 0.612798L6.74472 1.42835C6.92311 1.52586 7.12483 1.5774 7.32812 1.5774C7.5314 1.5774 7.73312 1.52586 7.91147 1.42837L9.40114 0.607924ZM5.25115 0C5.02515 0 4.8072 0.126991 4.70323 0.346545L3.97349 1.88755C3.88524 2.07388 3.70827 2.20252 3.5038 2.22895L1.81197 2.4476C1.46696 2.49219 1.23035 2.81763 1.29435 3.15957L1.60817 4.83636C1.64603 5.03866 1.57855 5.24633 1.42903 5.38774L0.189475 6.56002C-0.0631585 6.79894 -0.0631585 7.20105 0.189475 7.43997L1.429 8.61217C1.57853 8.75359 1.646 8.96127 1.60813 9.16357L1.29427 10.8403C1.23028 11.1823 1.46686 11.5077 1.81188 11.5523L3.50372 11.771C3.70818 11.7974 3.88515 11.926 3.97339 12.1124L4.70315 13.6534C4.80713 13.873 5.02502 14 5.25106 14C5.349 14 5.44851 13.9761 5.54089 13.9256L7.03763 13.1075C7.12815 13.058 7.22811 13.0333 7.3281 13.0333C7.42808 13.0333 7.52807 13.058 7.61856 13.1075L9.11519 13.9256C9.20761 13.9762 9.30707 14 9.40506 14C9.63106 14 9.849 13.873 9.95297 13.6535L10.6827 12.1124C10.771 11.9261 10.9479 11.7975 11.1524 11.7711L12.8442 11.5524C13.1893 11.5078 13.4258 11.1824 13.3618 10.8404L13.048 9.16364C13.0102 8.96134 13.0776 8.75367 13.2272 8.61226L14.4667 7.43998C14.7194 7.20106 14.7194 6.79895 14.4667 6.56003L13.2272 5.38783C13.0777 5.24641 13.0102 5.03873 13.0481 4.83643L13.3619 3.15969C13.4259 2.81775 13.1893 2.4923 12.8443 2.44771L11.1525 2.22902C10.948 2.20259 10.771 2.07395 10.6828 1.88762L9.95306 0.346566C9.84909 0.126977 9.63119 -2.62448e-06 9.40515 1.81995e-05C9.3072 2.72375e-05 9.20768 0.02388 9.1153 0.0743743L7.61856 0.892519C7.52807 0.94199 7.4281 0.966724 7.32812 0.966724C7.22813 0.966724 7.12815 0.941986 7.03765 0.892512L5.54101 0.0743641C5.44859 0.0238464 5.34914 0 5.25115 0Z" fill="black"/>
<path d="M5.28124 5.68945H4.94847V7.74869L3.57087 5.68945H3.21484V8.31225H3.54761V6.25123L4.92521 8.31225H5.28124V5.68945Z" fill="black"/>
<path d="M7.76753 5.68945H5.87109V8.31225H7.82835V8.00274H6.21818V7.10999H7.66913V6.80226H6.21818V5.99896H7.76753V5.68945Z" fill="black"/>
<path d="M11.4427 5.68945H11.0939L10.6824 7.37477C10.6287 7.58946 10.5852 7.7797 10.5518 7.94549C10.51 7.65566 10.442 7.34615 10.3478 7.01695L9.97211 5.68945H9.55347L9.05431 7.46065C9.04238 7.50358 9.00302 7.6652 8.93623 7.94549C8.90522 7.76777 8.86825 7.58887 8.82531 7.40877L8.42634 5.68945H8.07031L8.76627 8.31225H9.12051L9.67691 6.31384C9.70077 6.22916 9.72641 6.12659 9.75384 6.00612C9.76219 6.04429 9.78962 6.14686 9.83614 6.31384L10.389 8.31225H10.7235L11.4427 5.68945Z" fill="black"/>
</svg>
