<svg width="24" height="23" viewBox="0 0 24 23" fill="none" xmlns="http://www.w3.org/2000/svg">
<path d="M5.88873 2.35383C7.69759 1.14519 9.82422 0.500057 11.9997 0.5C14.9161 0.50352 17.712 1.6636 19.7742 3.7258C21.8365 5.78806 22.9966 8.58411 23 11.5006C22.9999 13.676 22.3548 15.8025 21.1462 17.6113C19.9375 19.4202 18.2195 20.8301 16.2095 21.6627C14.1995 22.4952 11.9878 22.7131 9.85401 22.2886C7.72022 21.8642 5.76021 20.8166 4.22183 19.2782C2.68345 17.7398 1.6358 15.7798 1.21137 13.646C0.78693 11.5122 1.00477 9.30047 1.83733 7.29048C2.66989 5.28049 4.07979 3.56253 5.88873 2.35383ZM13.5455 16.7273V13.0455H17.2273C17.6372 13.0455 18.0303 12.8826 18.3201 12.5928C18.6099 12.303 18.7727 11.9099 18.7727 11.5C18.7727 11.0901 18.6099 10.697 18.3201 10.4072C18.0303 10.1174 17.6372 9.95455 17.2273 9.95455H13.5455V6.27273C13.5455 5.86285 13.3826 5.46975 13.0928 5.17993C12.803 4.8901 12.4099 4.72727 12 4.72727C11.5901 4.72727 11.197 4.8901 10.9072 5.17993C10.6174 5.46975 10.4545 5.86285 10.4545 6.27273V9.95455H6.77273C6.36285 9.95455 5.96976 10.1174 5.67993 10.4072C5.3901 10.697 5.22728 11.0901 5.22728 11.5C5.22728 11.9099 5.3901 12.303 5.67993 12.5928C5.96976 12.8826 6.36285 13.0455 6.77273 13.0455H10.4545V16.7273C10.4545 17.1372 10.6174 17.5302 10.9072 17.8201C11.197 18.1099 11.5901 18.2727 12 18.2727C12.4099 18.2727 12.803 18.1099 13.0928 17.8201C13.3826 17.5302 13.5455 17.1372 13.5455 16.7273Z" fill="#0F366D" stroke="#0F366D"/>
</svg>
