<svg width="34" height="23" viewBox="0 0 34 23" fill="none" xmlns="http://www.w3.org/2000/svg">
<path d="M7.5 19.7542V13.7941L16.4802 19.0153C16.7634 19.1834 17.1028 19.1789 17.3817 19.0171C17.3819 19.017 17.3822 19.0168 17.3824 19.0167L26.5 13.7418V19.7542C26.5 21.3608 25.4318 22.5 24.2927 22.5H9.70729C8.5682 22.5 7.5 21.3608 7.5 19.7542ZM26.9959 13.455C26.9958 13.455 26.9958 13.455 26.9958 13.455L26.9959 13.455Z" fill="#0F366D" stroke="#0F366D"/>
<path d="M33.2044 8.47767L33.0374 8.55901L33.0376 8.55812L32.8097 8.6699L32.4508 8.84468L32.1033 9.01395L32.1037 9.01622L30.1294 9.98465L30.1291 9.98483L16.8599 16.4804L3.76962 10.037L3.76956 10.0369L0.692769 8.52197L17.0381 0.519588L33.2044 8.47767ZM31.6572 15.3982L32.524 11.103L33.3892 15.3982H31.6572Z" fill="#0F366D" stroke="#0F366D"/>
</svg>
