<?xml version="1.0" encoding="UTF-8"?>
<svg width="100pt" height="100pt" version="1.1" viewBox="0 0 100 100" xmlns="http://www.w3.org/2000/svg">
 <g fill="#fff">
  <path d="m43.898 48.699c9.5 0 17.301-7.6992 17.301-17.301 0-2.3008-0.39844-4.5-1.1992-6.5l-13.801 4.1016c-0.69922 0.19922-1.3984 0.30078-2 0.30078-0.60156 0-1.3984-0.10156-2-0.30078l-14.102-4.1992c-0.80078 2-1.3008 4.1992-1.3008 6.5-0.19531 9.5977 7.5039 17.398 17.102 17.398z"/>
  <path d="m42.602 27.102c1 0.30078 2 0.30078 3 0l14.5-4.3008c0.19922-0.10156 0.39844-0.30078 0.39844-0.5v-7l-15 4.5c-0.5 0.10156-1 0.19922-1.5 0.19922s-1-0.10156-1.5-0.19922l-14.699-4.3984v6.8984c0 0.19922 0.10156 0.39844 0.39844 0.5z"/>
  <path d="m19.301 10.898 23.699 7c0.60156 0.19922 1.1992 0.19922 1.8008 0l20.398-6.1016v8.3008c-0.39844 0.10156-0.69922 0.5-0.69922 0.89844v0.80078c0 0.39844 0.30078 0.80078 0.69922 0.89844l-1.1992 2.6992c-0.10156 0.30078 0.10156 0.60156 0.39844 0.69922l1 0.10156h0.60156l1-0.10156c0.30078 0 0.5-0.39844 0.39844-0.69922l-1.1992-2.6992c0.39844-0.10156 0.69922-0.5 0.69922-0.89844v-0.80078c0-0.39844-0.30078-0.80078-0.69922-0.89844v-8.6016l2.3008-0.69922c0.60156-0.19922 0.60156-1 0-1.1992l-23.699-7c-0.60156-0.19922-1.1992-0.19922-1.8008 0l-23.699 7c-0.60156 0.20312-0.60156 1.1016 0 1.3008z"/>
  <path d="m48.199 69.398v-1.3008c0-0.80078 0.30078-1.5 0.89844-1.8984 0.39844-0.39844 1-0.60156 1.6016-0.60156h0.5l16.699 3.5 6.3984-1.3008c-0.60156-5.6016-1.1016-11-1.3984-13.199-0.60156-5.1016-3-8.3008-7.5-8.3008h-4.3984c-0.69922 0-1.3008 0.30078-1.8008 0.69922-4 3.8008-9.5 6.1016-15.398 6.1016-6 0-11.398-2.3008-15.398-6.1016-0.5-0.39844-1.1016-0.69922-1.8008-0.69922h-4.3984c-4.5 0-7 3.1016-7.5 8.3008-0.60156 5.1992-2.8984 28.699-2.8984 28.699 0.19922 3.6992 2.6016 6.8984 6.1992 8.1016 6.6992 2.1992 18.199 3.3984 25.898 3.3984h2v-0.30078-22.801c0-1.3008 1-2.3008 2.1992-2.3008 0 0.003907 0.097657 0.003907 0.097657 0.003907z"/>
  <path d="m53.602 72.898 5.6992 1.1992 5.6992 1.1016h0.10156c0.19922 0 0.5-0.19922 0.5-0.39844 0.10156-0.30078-0.10156-0.60156-0.39844-0.60156l-5.6992-1.1016-5.6992-1.1992c-0.30078-0.10156-0.60156 0.10156-0.60156 0.39844-0.10156 0.30469 0.097656 0.50391 0.39844 0.60156z"/>
  <path d="m53.602 75.5 5.6992 1.1992 5.6992 1.1016h0.10156c0.19922 0 0.5-0.19922 0.5-0.39844 0.10156-0.30078-0.10156-0.60156-0.39844-0.60156l-5.6992-1.1016-5.6992-1.1992c-0.30078-0.10156-0.60156 0.10156-0.60156 0.39844-0.10156 0.30078 0.097656 0.60156 0.39844 0.60156z"/>
  <path d="m53.602 78.199 5.6992 1.1992 5.6992 1.1016h0.10156c0.19922 0 0.5-0.19922 0.5-0.39844 0.10156-0.30078-0.10156-0.60156-0.39844-0.60156l-5.6992-1.1016-5.6992-1.1992c-0.30078-0.10156-0.60156 0.10156-0.60156 0.39844-0.10156 0.30078 0.097656 0.50391 0.39844 0.60156z"/>
  <path d="m53.602 80.801 5.6992 1.1992 5.6992 1.1016h0.10156c0.19922 0 0.5-0.19922 0.5-0.39844 0.10156-0.30078-0.10156-0.60156-0.39844-0.60156l-5.6992-1.1016-5.6992-1.1992c-0.30078-0.10156-0.60156 0.10156-0.60156 0.39844-0.10156 0.30078 0.097656 0.60156 0.39844 0.60156z"/>
  <path d="m53.602 83.5 5.6992 1.1992 5.6992 1.1016h0.10156c0.19922 0 0.5-0.19922 0.5-0.39844 0.10156-0.30078-0.10156-0.60156-0.39844-0.60156l-5.6992-1.1016-5.6992-1.1992c-0.30078-0.10156-0.60156 0.10156-0.60156 0.39844-0.10156 0.30078 0.097656 0.5 0.39844 0.60156z"/>
  <path d="m53.602 86.102 5.6992 1.1992 5.6992 1.1016h0.10156c0.19922 0 0.5-0.19922 0.5-0.39844 0.10156-0.30078-0.10156-0.60156-0.39844-0.60156l-5.6992-1.1016-5.6992-1.1992c-0.30078-0.10156-0.60156 0.10156-0.60156 0.39844-0.10156 0.30078 0.097656 0.60156 0.39844 0.60156z"/>
  <path d="m53.602 88.801 5.6992 1.1992 5.6992 1.1016h0.10156c0.19922 0 0.5-0.19922 0.5-0.39844 0.10156-0.30078-0.10156-0.60156-0.39844-0.60156l-5.6992-1.1016-5.6992-1.1992c-0.30078-0.10156-0.60156 0.10156-0.60156 0.39844-0.10156 0.30078 0.097656 0.5 0.39844 0.60156z"/>
  <path d="m87.801 71.398c-0.69922 0-1.3984-0.10156-2.1016-0.10156v-3.1992c0-0.19922-0.10156-0.30078-0.19922-0.39844-0.10156-0.10156-0.30078-0.10156-0.39844-0.10156l-17.102 3.5-17.102-3.5c-0.19922 0-0.30078 0-0.39844 0.10156-0.10156 0.10156-0.19922 0.30078-0.19922 0.39844v3.1992c-0.69922 0-1.3984 0-2 0.10156-0.19922 0-0.30078 0.19922-0.30078 0.39844v22.801c0 0.10156 0 0.19922 0.10156 0.30078 0.10156 0.10156 0.19922 0.10156 0.30078 0.10156 6.5-0.30078 13 0.5 19.102 2.3984l0.60156 0.19922h0.10156 0.10156l0.60156-0.19922c6.1992-1.8984 12.602-2.6992 19.102-2.3984 0.10156 0 0.19922 0 0.30078-0.10156 0.10156-0.10156 0.10156-0.19922 0.10156-0.30078v-22.801c-0.3125-0.29688-0.41406-0.39844-0.61328-0.39844zm-20.402 22.902-16.199-3.3008v-22.199l16.199 3.3008zm17.203-3.3008-16.199 3.3008v-22.199l16.199-3.3008z"/>
  <path d="m70.898 75.199h0.10156l5.6992-1.1016 5.6992-1.1992c0.30078-0.10156 0.5-0.30078 0.39844-0.60156s-0.30078-0.5-0.60156-0.39844l-5.6992 1.1992-5.6992 1.1016c-0.30078 0.10156-0.5 0.30078-0.39844 0.60156 0 0.19922 0.30078 0.39844 0.5 0.39844z"/>
  <path d="m70.898 77.801h0.10156l5.6992-1.1016 5.6992-1.1992c0.30078-0.10156 0.5-0.30078 0.39844-0.60156-0.10156-0.30078-0.30078-0.5-0.60156-0.39844l-5.6992 1.1992-5.6992 1.1016c-0.30078 0.10156-0.5 0.30078-0.39844 0.60156 0 0.29688 0.30078 0.39844 0.5 0.39844z"/>
  <path d="m70.898 80.5h0.10156l5.6992-1.1016 5.6992-1.1992c0.30078-0.10156 0.5-0.30078 0.39844-0.60156-0.10156-0.30078-0.30078-0.5-0.60156-0.39844l-5.6992 1.1992-5.6992 1.1016c-0.30078 0.10156-0.5 0.30078-0.39844 0.60156 0 0.19922 0.30078 0.39844 0.5 0.39844z"/>
  <path d="m70.898 83.102h0.10156l5.6992-1.1016 5.6992-1.1992c0.30078-0.10156 0.5-0.30078 0.39844-0.60156s-0.30078-0.5-0.60156-0.39844l-5.6992 1.1992-5.6992 1.1016c-0.30078 0.10156-0.5 0.30078-0.39844 0.60156 0 0.29688 0.30078 0.39844 0.5 0.39844z"/>
  <path d="m70.898 85.801h0.10156l5.6992-1.1016 5.6992-1.1992c0.30078-0.10156 0.5-0.30078 0.39844-0.60156-0.10156-0.30078-0.30078-0.5-0.60156-0.39844l-5.6992 1.1992-5.6992 1.1016c-0.30078 0.10156-0.5 0.30078-0.39844 0.60156 0 0.19922 0.30078 0.39844 0.5 0.39844z"/>
  <path d="m70.898 88.398h0.10156l5.6992-1.1016 5.6992-1.1992c0.30078-0.10156 0.5-0.30078 0.39844-0.60156-0.10156-0.30078-0.30078-0.5-0.60156-0.39844l-5.6992 1.1992-5.6992 1.1016c-0.30078 0.10156-0.5 0.30078-0.39844 0.60156 0 0.30078 0.20312 0.39844 0.5 0.39844z"/>
  <path d="m70.898 91.102h0.10156l5.6992-1.1016 5.6992-1.1992c0.30078-0.10156 0.5-0.30078 0.39844-0.60156s-0.30078-0.5-0.60156-0.39844l-5.6992 1.1992-5.6992 1.1016c-0.30078 0.10156-0.5 0.30078-0.39844 0.60156 0 0.19531 0.20312 0.39844 0.5 0.39844z"/>
 </g>
</svg>
