<svg width="13" height="13" viewBox="0 0 13 13" fill="none" xmlns="http://www.w3.org/2000/svg">
<path d="M12.6719 5.42055C12.2482 4.85759 11.4826 4.74772 10.9495 4.72029C10.3071 4.67907 9.71924 4.70656 9.03575 4.7615C9.00843 4.67912 8.98106 4.5006 9.00843 4.12989C9.1041 3.03141 9.22713 2.22129 9.32285 1.57594L9.33652 1.521C9.44589 0.820738 9.06312 0.230297 8.40695 0.0517953C7.79181 -0.112953 6.98529 0.106728 6.68456 0.834434C6.64353 0.930533 6.60255 1.05412 6.54786 1.20515C6.16509 2.22125 5.30391 4.54176 3.9096 5.37934V5.25575C3.9096 5.07723 3.7729 4.93992 3.59517 4.93992H0.314427C0.136698 4.93992 0 5.07723 0 5.25575V12.1212C0 12.2997 0.136698 12.437 0.314427 12.437H3.59517C3.7729 12.437 3.9096 12.2997 3.9096 12.1212V12.0526C5.00318 12.3546 7.62777 13 9.50053 13C10.4847 13 11.715 13 12.0568 11.4484C12.3302 10.2264 12.6856 8.41388 12.918 7.16436C13.082 6.40916 13 5.83246 12.6719 5.42054L12.6719 5.42055ZM12.1251 7.02707C11.8928 8.27658 11.5373 10.0616 11.2639 11.2836C11.0862 12.0801 10.7308 12.1899 9.5005 12.1899C7.69609 12.1899 5.09883 11.5308 4.0736 11.2562C3.97793 11.2287 3.92325 11.1601 3.90959 11.0639V6.43659C3.90959 6.35422 3.95062 6.27184 4.01896 6.24435C5.85071 5.39305 6.83494 2.7567 7.29971 1.49345C7.3544 1.35614 7.39538 1.23255 7.43641 1.15018C7.53208 0.930496 7.76449 0.820626 7.99685 0.820626C8.0652 0.820626 8.13355 0.834347 8.18824 0.848069C8.37963 0.903002 8.58468 1.04031 8.52999 1.41103L8.51632 1.46596C8.42066 2.12506 8.28396 2.93517 8.18824 4.07483C8.13355 4.72016 8.22927 5.15958 8.46163 5.393C8.59833 5.53031 8.78972 5.59896 8.99477 5.58524C9.69191 5.51659 10.2524 5.48915 10.8675 5.53031C11.4553 5.57152 11.8244 5.69506 12.0021 5.9148C12.1935 6.13453 12.2345 6.50525 12.1251 7.02704L12.1251 7.02707Z" fill="black"/>
</svg>
