<svg width="11" height="15" viewBox="0 0 11 15" fill="none" xmlns="http://www.w3.org/2000/svg">
<path d="M4.09442 7.64803C2.60849 7.64803 2.56008 4.7224 2.56008 4.6932C2.55992 4.55068 2.50249 4.41439 2.40121 4.31614C2.29994 4.21782 2.1636 4.16612 2.02397 4.17301C1.88428 4.17991 1.75349 4.24477 1.66196 4.35253C0.948061 5.2298 0.44215 6.26295 0.183535 7.37202C-0.634782 11.5568 1.49284 13.5167 2.44686 14.1653C3.27866 14.721 4.25384 15.0114 5.24824 14.9997C6.72707 15.0054 8.15176 14.4331 9.22935 13.4006C10.0111 12.6278 10.5648 11.647 10.8277 10.5696C11.0905 9.49231 11.0521 8.3615 10.7166 7.30527C10.3282 6.19227 9.6622 5.20171 8.78404 4.43109C7.60771 3.41738 6.8449 1.99256 6.64482 0.435463C6.62372 0.306733 6.55601 0.190706 6.45511 0.110432C6.3542 0.0300981 6.22741 -0.00868466 6.09975 0.0016357C5.97216 0.0120102 5.85298 0.0707815 5.76583 0.166383C5.70307 0.235909 4.24171 1.88158 4.96184 4.81972C5.24554 5.97455 5.21485 6.85473 4.87591 7.29691V7.29697C4.68374 7.53238 4.39445 7.6623 4.0944 7.64807L4.09442 7.64803ZM5.68196 7.93862C6.23432 7.21762 6.32638 6.08299 5.95473 4.56664C5.72527 3.7206 5.7274 2.82656 5.96091 1.98168C6.37428 3.21804 7.10048 4.32121 8.06603 5.17985C8.82611 5.83758 9.40538 6.6855 9.74699 7.64036C10.0211 8.51285 10.0502 9.44621 9.83095 10.3347C9.61172 11.2232 9.15296 12.0314 8.50657 12.6679C7.7856 13.3724 6.85739 13.8158 5.86491 13.9296C4.87248 14.0435 3.87081 13.8214 3.0143 13.2978C2.23147 12.7659 0.486385 11.1425 1.18605 7.57653C1.29036 7.08541 1.46307 6.61198 1.69889 6.17073C1.9805 7.43262 2.66584 8.69103 4.09451 8.69103C4.71027 8.70879 5.29833 8.43008 5.68204 7.93873L5.68196 7.93862Z" fill="#13222A"/>
</svg>
